# xmcd CD database file
#
# Track frame offsets:
#	187
#	27200
#	55475
#	82747
#	104772
#	133147
#	162540
#	191892
#	223810
#
# Disc length: 3387 seconds
#
# Revision: 1
# Processed by: cddbd v1.5.1PL0 Copyright (c) Steve Scherf et al.
# Submitted via: CDex 1.51
#
DISCID=870d3909
DTITLE=Various Artist - Standard Jazz
DYEAR=1989
DGENRE=Jazz
TTITLE0=Autumn Leaves (Mercer-Kosma-Prevert)-Bill Evans
TTITLE1=Violet For Your Furs (Dennis)-John Coltrane
TTITLE2=My Funny Valentine (Rodgers-Hart)-Miles Davis
TTITLE3=Golden Earrnings (Livingston-Evans-Young)-Ray Bryant
TTITLE4=Satindoll (Duke Elington)-Red Garland
TTITLE5=Besame Mucho (Velazquez-Skylar)-Wes Montgomery
TTITLE6=Softly, As In A Morning Sunrise (Hammerstein-Romberg)-Wynton Kelly
TTITLE7=Django (John Lewis)-The Moder Jazz Quartet
TTITLE8='Round Midnight (Monk-Williams)-Thelonous Monk
EXTD=YEAR: 1989
EXTT0=
EXTT1=
EXTT2=
EXTT3=
EXTT4=
EXTT5=
EXTT6=
EXTT7=
EXTT8=
PLAYORDER=
